ply
		format ascii 1.0
		element vertex 254
		property float x
		property float y
		property float z
		property uchar blue
		property uchar green
		property uchar red
		end_header
		0.000000 0.000000 0.000000 255 255 255
-0.475316 9.723618 4.921499 255 255 255
-10.617560 13.550943 -2.792136 255 255 255
-3.656328 -0.554315 -1.093712 255 255 255
3.455652 58.531627 29.642358 255 255 255
9.048206 58.671714 45.093506 255 255 255
8.657640 63.803117 34.536965 255 255 255
5.206968 57.355401 24.999350 255 255 255
9.920669 126.396880 46.927727 255 255 255
14.205197 118.273467 75.227931 255 255 255
19.907370 108.655459 90.675989 255 255 255
29.020634 115.710873 74.342813 255 255 255
11.625426 128.357192 44.142138 255 255 255
12.711312 191.518536 59.053915 255 255 255
21.589364 173.705632 99.102119 255 255 255
28.587089 154.949526 129.814410 255 255 255
46.760256 165.266510 107.055864 255 255 255
25.717059 182.184758 78.363135 255 255 255
6.719900 263.193924 53.735001 255 255 255
24.780866 245.952442 109.455786 255 255 255
39.504823 213.764304 166.480805 255 255 255
72.845195 218.999771 143.161198 255 255 255
29.541213 251.105936 96.207276 255 255 255
9.968744 266.826853 50.318831 255 255 255
1.490755 264.381897 -14.653145 255 255 255
-9.177507 252.467375 -69.988168 255 255 255
95.949067 271.364358 189.029583 255 255 255
49.585120 273.368699 211.206611 255 255 255
24.055447 322.856151 119.345381 255 255 255
69.553957 319.357024 104.620675 255 255 255
9.092765 338.392645 63.146731 255 255 255
-13.250286 337.826038 -33.235943 255 255 255
-23.525280 320.129586 -100.840775 255 255 255
0.000000 0.000000 0.000000 255 255 255
-12.154146 404.807744 -64.516668 255 255 255
18.255349 412.242142 35.033621 255 255 255
29.739876 387.781197 137.272264 255 255 255
19.454446 391.379511 119.239841 255 255 255
61.307686 321.454137 252.462730 255 255 255
115.650852 319.102524 225.301519 255 255 255
87.203377 360.902610 160.137394 255 255 255
40.758831 398.094518 89.905171 255 255 255
68.822052 390.479773 304.049146 255 255 255
126.863596 391.283978 265.416630 255 255 255
117.728779 440.369250 173.111986 255 255 255
45.775027 441.989685 189.995745 255 255 255
29.800438 452.107057 183.124941 255 255 255
8.033550 489.994034 95.303768 255 255 255
-12.496773 495.965881 0.721519 255 255 255
-15.511973 482.078057 -95.937890 255 255 255
0.000000 0.000000 0.000000 255 255 255
88.709590 435.128196 353.899440 255 255 255
166.925703 430.896964 309.435093 255 255 255
135.046800 499.940991 193.284611 255 255 255
67.314830 488.954045 258.681869 255 255 255
30.309524 514.100373 188.826465 255 255 255
34.279152 559.242859 89.812254 255 255 255
1.717276 565.086813 26.034972 255 255 255
-28.097218 547.514264 -123.760912 255 255 255
0.000000 0.000000 0.000000 255 255 255
75.217349 471.908470 407.470407 255 255 255
67.791887 512.012359 324.895790 255 255 255
39.872207 566.512957 193.878099 255 255 255
12.321158 599.793456 88.104252 255 255 255
-14.588079 617.550445 -115.467506 255 255 255
0.000000 0.000000 0.000000 255 255 255
115.190214 572.195771 155.292099 255 255 255
159.050116 554.191235 206.083279 255 255 255
178.362312 485.189575 338.608541 255 255 255
142.760942 470.181895 390.866941 255 255 255
0.000000 0.000000 0.000000 255 255 255
64.879330 610.790702 323.597952 255 255 255
38.791919 661.064927 194.869885 255 255 255
11.957737 668.619763 71.606090 255 255 255
-33.091436 709.787566 -165.022603 255 255 255
-51.732175 663.264625 -292.495904 255 255 255
0.000000 0.000000 0.000000 255 255 255
0.000000 0.000000 0.000000 255 255 255
98.596050 669.334520 190.756044 255 255 255
50.405284 667.612895 23.627855 255 255 255
121.097049 672.906337 144.735454 255 255 255
198.850141 603.591270 315.821126 255 255 255
212.449948 862.908419 177.846926 255 255 255
125.929044 856.108957 295.034886 255 255 255
86.015426 864.888465 281.846842 255 255 255
49.809235 721.670245 248.123999 255 255 255
3.381522 746.382787 82.123278 255 255 255
-29.909621 802.203345 -138.701407 255 255 255
-53.474374 739.305034 -323.115832 255 255 255
0.000000 0.000000 0.000000 255 255 255
0.000000 0.000000 0.000000 255 255 255
0.000000 0.000000 0.000000 255 255 255
0.000000 0.000000 0.000000 255 255 255
0.000000 0.000000 0.000000 255 255 255
91.124377 860.634709 333.740827 255 255 255
66.754363 906.227274 177.494022 255 255 255
20.941458 818.011349 97.985224 255 255 255
-16.410362 817.596510 -64.347323 255 255 255
-58.854020 805.154258 -348.136135 255 255 255
0.000000 0.000000 0.000000 255 255 255
-3.722476 815.881943 -54.648918 255 255 255
80.410506 917.946408 91.705595 255 255 255
171.711122 852.366668 319.676758 255 255 255
177.146484 879.420273 228.628948 255 255 255
0.000000 0.000000 0.000000 255 255 255
58.273746 860.634833 363.048143 255 255 255
3.822851 917.936340 162.912751 255 255 255
-24.035954 923.887698 -64.049993 255 255 255
-57.968724 887.103322 -235.571904 255 255 255
-63.159704 825.284691 -535.919163 255 255 255
0.000000 0.000000 0.000000 255 255 255
0.000000 0.000000 0.000000 255 255 255
88.617571 921.369072 100.872664 255 255 255
215.868576 860.967637 288.049274 255 255 255
44.168515 951.687912 335.978421 255 255 255
-8.687069 1018.005674 53.893695 255 255 255
-24.244310 1014.701882 5.540991 255 255 255
-76.276158 993.195176 -282.772839 255 255 255
-111.599843 918.559174 -460.740423 255 255 255
0.000000 0.000000 0.000000 255 255 255
-129.355352 940.863453 -413.131247 255 255 255
1.972677 1022.767362 2.948637 255 255 255
123.065883 958.964002 294.501696 255 255 255
127.010658 980.614630 221.363781 255 255 255
-130.320818 1020.702040 -140.443927 255 255 255
0.000000 0.000000 0.000000 255 255 255
-115.842764 977.464986 -476.097028 255 255 255
-68.630769 1061.709220 -260.618286 255 255 255
-2.234183 1096.153649 32.782591 255 255 255
40.430658 1020.062473 316.334980 255 255 255
69.602061 1051.581661 230.709183 255 255 255
-75.276517 1092.625078 -115.490482 255 255 255
-203.753341 1006.454255 -379.413329 255 255 255
71.827283 1076.052946 112.780583 255 255 255
-203.445944 1057.371416 -212.242038 255 255 255
0.000000 0.000000 0.000000 255 255 255
47.700664 999.776052 239.202209 255 255 255
13.329870 1096.380153 273.294017 255 255 255
0.000000 0.000000 0.000000 255 255 255
0.000000 0.000000 0.000000 255 255 255
0.000000 0.000000 0.000000 255 255 255
0.000000 0.000000 0.000000 255 255 255
0.000000 0.000000 0.000000 255 255 255
61.680231 496.913147 232.909942 255 255 255
0.000000 0.000000 0.000000 255 255 255
0.000000 0.000000 0.000000 255 255 255
49.180494 501.651352 204.511313 255 255 255
0.000000 0.000000 0.000000 255 255 255
0.000000 0.000000 0.000000 255 255 255
0.000000 0.000000 0.000000 255 255 255
0.000000 0.000000 0.000000 255 255 255
0.000000 0.000000 0.000000 255 255 255
0.000000 0.000000 0.000000 255 255 255
0.000000 0.000000 0.000000 255 255 255
0.000000 0.000000 0.000000 255 255 255
0.000000 0.000000 0.000000 255 255 255
0.000000 0.000000 0.000000 255 255 255
0.000000 0.000000 0.000000 255 255 255
0.000000 0.000000 0.000000 255 255 255
0.000000 0.000000 0.000000 255 255 255
0.000000 0.000000 0.000000 255 255 255
0.000000 0.000000 0.000000 255 255 255
0.000000 0.000000 0.000000 255 255 255
0.000000 0.000000 0.000000 255 255 255
0.000000 0.000000 0.000000 255 255 255
0.000000 0.000000 0.000000 255 255 255
0.000000 0.000000 0.000000 255 255 255
0.000000 0.000000 0.000000 255 255 255
0.000000 0.000000 0.000000 255 255 255
0.000000 0.000000 0.000000 255 255 255
0.000000 0.000000 0.000000 255 255 255
0.000000 0.000000 0.000000 255 255 255
0.000000 0.000000 0.000000 255 255 255
0.000000 0.000000 0.000000 255 255 255
0.000000 0.000000 0.000000 255 255 255
0.000000 0.000000 0.000000 255 255 255
0.000000 0.000000 0.000000 255 255 255
0.000000 0.000000 0.000000 255 255 255
0.000000 0.000000 0.000000 255 255 255
0.000000 0.000000 0.000000 255 255 255
0.000000 0.000000 0.000000 255 255 255
0.000000 0.000000 0.000000 255 255 255
0.000000 0.000000 0.000000 255 255 255
0.000000 0.000000 0.000000 255 255 255
0.000000 0.000000 0.000000 255 255 255
0.000000 0.000000 0.000000 255 255 255
0.000000 0.000000 0.000000 255 255 255
0.000000 0.000000 0.000000 255 255 255
0.000000 0.000000 0.000000 255 255 255
0.000000 0.000000 0.000000 255 255 255
0.000000 0.000000 0.000000 255 255 255
0.000000 0.000000 0.000000 255 255 255
0.000000 0.000000 0.000000 255 255 255
0.000000 0.000000 0.000000 255 255 255
0.000000 0.000000 0.000000 255 255 255
0.000000 0.000000 0.000000 255 255 255
0.000000 0.000000 0.000000 255 255 255
0.000000 0.000000 0.000000 255 255 255
0.000000 0.000000 0.000000 255 255 255
0.000000 0.000000 0.000000 255 255 255
0.000000 0.000000 0.000000 255 255 255
0.000000 0.000000 0.000000 255 255 255
0.000000 0.000000 0.000000 255 255 255
0.000000 0.000000 0.000000 255 255 255
0.000000 0.000000 0.000000 255 255 255
0.000000 0.000000 0.000000 255 255 255
0.000000 0.000000 0.000000 255 255 255
0.000000 0.000000 0.000000 255 255 255
0.000000 0.000000 0.000000 255 255 255
0.000000 0.000000 0.000000 255 255 255
0.000000 0.000000 0.000000 255 255 255
0.000000 0.000000 0.000000 255 255 255
0.000000 0.000000 0.000000 255 255 255
0.000000 0.000000 0.000000 255 255 255
0.000000 0.000000 0.000000 255 255 255
0.000000 0.000000 0.000000 255 255 255
0.000000 0.000000 0.000000 255 255 255
0.000000 0.000000 0.000000 255 255 255
0.000000 0.000000 0.000000 255 255 255
0.000000 0.000000 0.000000 255 255 255
0.000000 0.000000 0.000000 255 255 255
0.000000 0.000000 0.000000 255 255 255
0.000000 0.000000 0.000000 255 255 255
0.000000 0.000000 0.000000 255 255 255
0.000000 0.000000 0.000000 255 255 255
0.000000 0.000000 0.000000 255 255 255
0.000000 0.000000 0.000000 255 255 255
0.000000 0.000000 0.000000 255 255 255
0.000000 0.000000 0.000000 255 255 255
0.000000 0.000000 0.000000 255 255 255
0.000000 0.000000 0.000000 255 255 255
0.000000 0.000000 0.000000 255 255 255
0.000000 0.000000 0.000000 255 255 255
0.000000 0.000000 0.000000 255 255 255
0.000000 0.000000 0.000000 255 255 255
0.000000 0.000000 0.000000 255 255 255
0.000000 0.000000 0.000000 255 255 255
0.000000 0.000000 0.000000 255 255 255
0.000000 0.000000 0.000000 255 255 255
0.000000 0.000000 0.000000 255 255 255
0.000000 0.000000 0.000000 255 255 255
0.000000 0.000000 0.000000 255 255 255
0.000000 0.000000 0.000000 255 255 255
0.000000 0.000000 0.000000 255 255 255
0.000000 0.000000 0.000000 255 255 255
0.000000 0.000000 0.000000 255 255 255
0.000000 0.000000 0.000000 255 255 255
0.000000 0.000000 0.000000 255 255 255
0.000000 0.000000 0.000000 255 255 255
0.000000 0.000000 0.000000 255 255 255
0.000000 0.000000 0.000000 255 255 255
0.000000 0.000000 0.000000 255 255 255
0.000000 0.000000 0.000000 255 255 255
0.000000 0.000000 0.000000 255 255 255
